<?xml version="1.0" encoding="utf-8"?>
<svg fill="#000000" viewBox="0 8 24 8" xmlns="http://www.w3.org/2000/svg" role="img">
  <title>Samsung icon</title>
  <g id="svg6" style="" transform="matrix(0.243656, 0, 0, 0.246996, 7.022664, 8.677629)">
    <title id="title2">logo</title>
    <path d="M -11.156 1.258 C -12.759 1.238 -14.348 1.555 -15.821 2.188 C -17.198 2.788 -18.442 3.657 -19.48 4.743 C -20.521 5.851 -21.333 7.153 -21.871 8.575 C -22.455 10.114 -22.749 11.748 -22.74 13.394 C -22.758 15.079 -22.476 16.755 -21.905 18.341 C -21.379 19.778 -20.566 21.094 -19.514 22.207 C -18.464 23.3 -17.197 24.163 -15.795 24.738 C -14.264 25.353 -12.627 25.658 -10.978 25.636 C -9.016 25.658 -7.072 25.263 -5.274 24.478 C -3.52 23.664 -2.033 22.368 -0.986 20.743 L -3.063 19 C -3.881 20.28 -5.036 21.31 -6.4 21.978 C -7.803 22.712 -9.362 23.099 -10.946 23.105 C -12.742 23.105 -14.227 22.759 -15.362 22.076 C -17.397 20.895 -18.884 18.958 -19.498 16.686 C -19.722 15.877 -19.849 15.045 -19.878 14.207 L -19.878 14.109 L -0.263 14.109 L -0.263 12.084 C -0.266 10.737 -0.502 9.401 -0.959 8.134 C -1.42 6.848 -2.125 5.664 -3.037 4.648 C -3.991 3.6 -5.152 2.763 -6.448 2.19 C -7.937 1.558 -9.541 1.245 -11.159 1.271 L -11.156 1.258 Z M -3.125 11.587 L -19.902 11.587 L -19.902 11.489 C -19.843 10.899 -19.705 10.32 -19.49 9.767 C -19.17 8.842 -18.706 7.972 -18.117 7.19 C -17.4 6.245 -16.507 5.447 -15.487 4.842 C -14.381 4.159 -12.976 3.814 -11.318 3.814 C -9.163 3.808 -7.088 4.625 -5.516 6.098 C -4.789 6.796 -4.198 7.622 -3.773 8.535 C -3.346 9.469 -3.129 10.486 -3.135 11.513 L -3.135 11.587 L -3.125 11.587 Z M 14.726 1.271 C 13.123 1.252 11.534 1.568 10.061 2.201 C 8.684 2.802 7.44 3.67 6.403 4.757 C 5.362 5.864 4.549 7.166 4.012 8.588 C 3.433 10.127 3.143 11.76 3.156 13.405 C 3.138 15.09 3.42 16.765 3.99 18.352 C 4.508 19.786 5.312 21.1 6.352 22.214 C 7.402 23.308 8.669 24.17 10.072 24.746 C 11.602 25.361 13.239 25.666 14.888 25.644 C 16.85 25.666 18.794 25.271 20.593 24.486 C 22.347 23.672 23.834 22.376 24.881 20.751 L 22.803 19.008 C 21.992 20.285 20.846 21.315 19.49 21.986 C 18.087 22.72 16.528 23.107 14.944 23.112 C 13.148 23.112 11.663 22.767 10.529 22.084 C 8.493 20.903 7.007 18.965 6.392 16.694 C 6.169 15.885 6.041 15.053 6.012 14.215 L 6.012 14.117 L 25.627 14.117 L 25.627 12.092 C 25.623 10.742 25.386 9.403 24.926 8.134 C 24.465 6.848 23.76 5.664 22.848 4.648 C 21.894 3.6 20.733 2.763 19.437 2.19 C 17.948 1.558 16.344 1.245 14.726 1.271 L 14.726 1.271 Z M 22.761 11.587 L 5.98 11.587 L 5.98 11.489 C 6.039 10.899 6.178 10.32 6.392 9.767 C 6.712 8.842 7.176 7.972 7.766 7.19 C 8.482 6.245 9.375 5.447 10.396 4.842 C 11.501 4.159 12.906 3.814 14.564 3.814 C 16.719 3.808 18.794 4.625 20.367 6.098 C 21.093 6.796 21.684 7.622 22.11 8.535 C 22.536 9.469 22.754 10.486 22.747 11.513 L 22.747 11.587 L 22.761 11.587 Z M 51.417 1.271 C 49.736 1.255 48.068 1.56 46.502 2.169 C 45.054 2.73 43.738 3.585 42.636 4.68 C 41.555 5.793 40.703 7.106 40.125 8.545 C 38.927 11.698 38.927 15.18 40.125 18.333 C 40.693 19.782 41.547 21.103 42.636 22.214 C 43.735 23.318 45.051 24.18 46.502 24.746 C 48.068 25.355 49.736 25.66 51.417 25.644 C 53.087 25.657 54.745 25.35 56.3 24.738 C 59.227 23.586 61.545 21.269 62.697 18.341 C 63.896 15.188 63.896 11.706 62.697 8.553 C 61.545 5.626 59.227 3.308 56.3 2.156 C 54.745 1.546 53.087 1.241 51.417 1.258 L 51.417 1.271 Z M 51.417 23.118 C 50.081 23.132 48.758 22.865 47.532 22.334 C 46.415 21.851 45.407 21.148 44.567 20.267 C 43.745 19.384 43.112 18.341 42.708 17.204 C 41.856 14.779 41.856 12.136 42.708 9.712 C 43.112 8.574 43.745 7.532 44.567 6.648 C 45.405 5.765 46.414 5.062 47.532 4.581 C 50.015 3.556 52.802 3.556 55.285 4.581 C 56.402 5.065 57.41 5.768 58.25 6.648 C 59.073 7.532 59.706 8.574 60.11 9.712 C 60.961 12.136 60.961 14.779 60.11 17.204 C 59.706 18.341 59.073 19.384 58.25 20.267 C 57.412 21.15 56.403 21.854 55.285 22.334 C 54.064 22.859 52.746 23.121 51.417 23.105 L 51.417 23.118 Z M 28.996 25.055 L 31.844 25.055 L 31.844 12.384 C 31.836 11.289 31.989 10.199 32.298 9.148 C 32.582 8.181 33.062 7.282 33.706 6.508 C 34.363 5.739 35.19 5.135 36.121 4.743 C 37.186 4.308 38.327 4.092 39.477 4.106 L 39.477 1.492 C 36.164 1.569 33.576 2.573 31.772 4.502 C 28.807 7.663 29.001 12.265 29.001 12.307 L 29.001 25.06 L 28.996 25.055 Z" id="path4" style="stroke-width: 0.265678;"/>
  </g>
</svg>