<?xml version="1.0" encoding="utf-8"?>
<svg fill="#000000" viewBox="0 9 24 6" xmlns="http://www.w3.org/2000/svg" role="img">
  <title>Samsung icon</title>
  <g id="Layer_1" style="" transform="matrix(0.060956, 0, 0, 0.063349, 11.75173, 10.269167)">
    <g id="Group_10032" transform="matrix(1, 0, 0, 1, -181.427063, -15.80471)">
      <g id="Group_10031-2">
        <path id="Path_19855" d="M37.8,42.3H.4c-.2,0-.4-.2-.4-.4h0V6.3c0-.2.2-.4.4-.4h1c3.2,0,5.7,2.6,5.7,5.7h0v24.2h23.9c1.8,0,3.4.8,4.5,2.2l2.7,3.6c0,.2,0,.4-.2.5h-.2" style=""/>
        <path id="Path_19856" d="M82.4,30.3c0,3.8-1.9,6.9-5.7,9.4s-8.9,3.6-15.4,3.6-11.6-1.2-15.4-3.6-5.7-5.5-5.7-9.4V6.3c0-.2.2-.4.4-.4s0,0,0,0h1.1c3.1,0,5.6,2.5,5.6,5.6h0v17.4c0,5.4,4.7,8,14.1,8s14-2.7,14-8V11.5c0-3.1,2.5-5.6,5.6-5.6h1.1c.2,0,.4.2.4.4h0v24h0Z" style=""/>
        <path id="Path_19857" d="M197.3,42.3h-3.8c-2.1,0-4-1.1-4.9-3l-2.6-4.8h-24.4l-2.6,4.8c-1,1.8-2.9,3-4.9,3h-3.8c-.2,0-.4-.2-.4-.4v-.2l19.4-35.6s.2-.2.3-.2h8.4c.1,0,.3,0,.3.2l19.4,35.6c0,.2,0,.4-.1.5h-.2M182.4,28.1l-8.6-16.1-8.7,16.1h17.3Z" style=""/>
        <path id="Path_19858" d="M142.9,42.2h-1.3c-3.1,0-5.6-2.5-5.6-5.6h0V12.3l-17,23.1c-.5.7-1.4.8-2.1.3,0,0-.2-.2-.3-.3l-17-23.3-.2.2v24.3c0,3.1-2.5,5.6-5.6,5.6h-1.1c-.2,0-.4-.2-.4-.4V6.3c0-.2.2-.4.4-.4h9.5c.5,0,.9.2,1.2.6l14.4,19.9,14.4-19.9c.3-.4.7-.6,1.2-.6h9.5c.2,0,.4.2.4.4v35.6c0,.2-.2.4-.4.4" style=""/>
        <path id="Path_19859" d="M224,42.3l-19.1-36.5h3.9l17.2,32.9,17.1-32.9h3.8l-19.1,36.5h-3.8,0Z" style=""/>
        <rect id="Rectangle_2807" x="253.4" y="5.8" width="3.4" height="36.5" style=""/>
        <path id="Path_19860" d="M269.9,42.3V5.8h28.3v2.9h-24.9v13.3h23.6v2.9h-23.6v14.5h25.7l-.7,2.9s-28.4,0-28.4,0Z" style=""/>
        <path id="Path_19861" d="M343.3,42.3l-10.8-32.2-10.9,32.2h-3.7l-14.6-36.5h3.8l12.8,32.3,10.9-32.1h3.7l10.9,32.2,12.8-32.4h3.7l-14.6,36.5h-4,0Z" style=""/>
        <path id="Path_19862" d="M364.3,3.2V.6h-1.3V0h3.3v.6h-1.3v2.6s-.7,0-.7,0Z" style=""/>
        <path id="Path_19863" d="M370.3,3.2V1l-1,2.2h-.6l-1-2.2v2.2h-.7V0h.8l1.2,2.5L370.2,0h.8v3.2h-.7Z" style=""/>
      </g>
    </g>
    <path id="Path_19864" d="M 130.473 51.895 L 122.673 69.895 L 118.573 69.895 L 110.773 51.895 L 115.273 51.895 L 120.773 64.695 L 126.273 51.895 L 130.373 51.895 L 130.473 51.895 Z" style=""/>
    <path id="Path_19865" d="M 153.473 69.795 L 153.473 58.995 C 153.473 58.995 148.173 67.895 148.173 67.895 L 146.273 67.895 L 140.973 59.195 L 140.973 69.795 L 137.073 69.795 L 137.073 51.795 L 140.473 51.795 L 147.173 62.995 L 153.773 51.795 L 157.173 51.795 L 157.173 69.795 C 157.173 69.795 153.373 69.795 153.373 69.795 L 153.473 69.795 Z" style=""/>
    <path id="Path_19866" d="M 165.373 68.095 L 166.773 64.995 C 168.473 66.195 170.573 66.895 172.673 66.895 C 175.173 66.895 176.173 66.095 176.173 64.995 C 176.173 61.595 165.673 63.895 165.673 57.295 C 165.673 50.695 168.173 51.695 173.273 51.695 C 175.473 51.695 177.573 52.195 179.473 53.295 L 178.173 56.495 C 176.673 55.595 174.973 55.095 173.173 55.095 C 170.673 55.095 169.773 55.995 169.773 57.195 C 169.773 60.495 180.273 58.195 180.273 64.795 C 180.273 71.395 177.773 70.395 172.673 70.395 C 170.073 70.395 167.573 69.695 165.373 68.295" style=""/>
  </g>
</svg>