<?xml version="1.0" encoding="utf-8"?>
<svg version="1.1" id="layer" xmlns="http://www.w3.org/2000/svg" x="0px" y="0px" viewBox="-125 220 600 100">
  <style type="text/css">
	.st0{fill:#9FA0A0;}
	.st1{fill-rule:evenodd;clip-rule:evenodd;fill:#C70F28;}
	.st2{fill:#C70F28;}
</style>
  <path d="M 1450.42 254.506 C 1468.12 254.506 1482.52 240.106 1482.52 222.406 C 1482.52 204.706 1468.12 190.306 1450.42 190.306 C 1432.72 190.306 1418.32 204.706 1418.32 222.406 C 1418.32 240.106 1432.72 254.506 1450.42 254.506" style=""/>
  <path d="M 1450.42 247.106 C 1464.12 247.106 1475.22 236.006 1475.22 222.406 C 1475.22 208.706 1464.12 197.606 1450.52 197.606 C 1436.82 197.606 1425.72 208.706 1425.72 222.306 C 1425.62 236.006 1436.72 247.106 1450.42 247.106 Z" style="fill: rgb(255, 255, 255);"/>
  <path d="M 453.233 234.717 L 457.473 234.717 C 459.608 234.752 459.49 237.226 459.514 237.854 C 459.537 238.62 459.49 240.293 458.722 240.676 L 458.722 240.712 C 459.007 240.676 459.237 241.304 459.26 242.071 C 459.26 242.071 459.838 246.776 459.814 246.776 L 457.868 246.776 C 457.892 246.845 457.568 244.161 457.473 243.534 C 457.267 242.141 457.267 241.861 456.381 241.896 L 455.337 241.896 L 455.368 246.776 L 453.28 246.776 L 453.28 234.717 L 453.233 234.717 Z M 455.321 239.632 L 455.985 239.632 C 456.571 239.632 457.449 239.526 457.473 238.307 C 457.496 237.539 457.425 236.913 456.452 236.947 L 455.337 236.947 L 455.321 239.632 Z M 318.657 299.679 L 318.657 262.25 C 318.657 249.425 311.743 239.004 303.191 239.004 L 291.049 239.004 C 285.416 239.004 280.496 242.175 277.782 246.914 L 277.782 239.004 L 246.884 239.004 L 246.884 242.315 L 250.174 248.936 L 250.198 299.644 L 246.884 306.3 L 246.884 309.611 L 277.782 309.611 L 277.782 262.285 L 277.782 262.25 C 277.782 256.743 280.749 252.282 284.42 252.282 C 288.074 252.282 291.049 256.743 291.049 262.25 L 291.049 309.611 L 321.971 309.611 L 321.971 306.3 L 318.657 299.679 Z M 233.111 299.679 L 233.111 262.423 C 233.111 249.599 226.205 239.178 217.646 239.178 L 198.083 239.178 C 191.311 239.178 184.54 240.084 177.887 241.861 L 173.481 236.877 L 171.258 236.877 L 171.258 253.885 C 180.047 250.714 189.041 249.076 198.083 249.111 C 202.995 249.111 205.408 254.86 205.408 263.295 L 187.182 263.295 C 173.417 263.295 164.004 272.774 164.004 286.54 C 164.004 300.446 173.441 309.821 187.182 309.821 C 194.001 309.821 200.329 308.357 205.527 305.882 L 205.527 309.577 L 236.426 309.577 L 236.426 306.266 L 233.111 299.679 Z M 205.384 293.614 C 203.873 296.228 201.651 297.901 199.174 297.901 C 194.65 297.901 190.987 292.395 190.987 285.565 C 190.987 278.769 194.65 273.263 199.174 273.263 L 205.384 273.263 L 205.384 293.614 Z M 77.553 299.679 L 77.553 262.423 C 77.553 249.599 70.645 239.178 62.09 239.178 L 42.524 239.178 C 35.754 239.178 28.985 240.084 22.332 241.861 L 17.904 236.877 L 15.701 236.877 L 15.701 253.885 C 24.488 250.714 33.482 249.076 42.524 249.111 C 47.439 249.111 49.85 254.86 49.85 263.295 L 31.628 263.295 C 17.857 263.295 8.445 272.774 8.445 286.54 C 8.445 300.446 17.881 309.821 31.628 309.821 C 38.444 309.821 44.749 308.357 49.943 305.882 L 49.943 309.577 L 80.869 309.577 L 80.869 306.266 L 77.553 299.679 Z M 49.85 293.614 C 48.342 296.228 46.117 297.901 43.637 297.901 C 39.116 297.901 35.454 292.395 35.454 285.565 C 35.454 278.769 39.116 273.263 43.637 273.263 L 49.85 273.263 L 49.85 293.614 Z M 143.484 238.55 C 135.09 238.55 127.583 244.196 122.505 253.118 L 122.505 239.212 L 91.606 239.212 L 91.606 242.558 L 94.92 249.18 L 94.92 299.679 L 91.606 306.3 L 91.606 309.611 L 125.819 309.611 L 125.819 306.3 L 122.505 299.644 L 122.505 278.35 C 122.505 270.056 124.64 263.644 128.137 259.182 C 128.066 260.054 128.042 260.89 128.042 261.761 C 128.042 274.587 134.956 285.007 143.507 285.007 C 152.043 285.007 158.973 274.622 158.973 261.761 C 158.949 248.936 152.043 238.55 143.484 238.55 M -44.111 262.493 L -44.111 262.458 C -44.111 256.952 -41.143 252.491 -37.48 252.491 C -33.818 252.491 -30.849 256.952 -30.849 262.458 L -30.849 309.646 L 0.076 309.646 L 0.076 306.336 L -3.239 299.679 L -3.239 262.423 C -3.239 249.599 -10.147 239.178 -18.702 239.178 L -30.849 239.178 C -37.364 239.178 -42.928 243.431 -45.2 249.425 C -47.495 243.465 -53.059 239.178 -59.571 239.178 L -71.722 239.178 C -77.355 239.178 -82.267 242.35 -84.98 247.089 L -84.98 239.178 L -115.89 239.178 L -115.89 242.523 L -112.57 249.145 L -112.57 299.679 L -115.89 306.3 L -115.89 309.611 L -84.957 309.611 L -84.957 262.493 L -84.957 262.458 C -84.957 256.952 -81.99 252.491 -78.328 252.491 C -74.665 252.491 -71.698 256.952 -71.698 262.458 L -71.698 309.646 L -44.111 309.646 L -44.111 262.493 Z M 368.866 249.145 L 368.866 239.212 L 363.352 239.212 L 363.352 226.91 L 335.736 226.91 L 335.736 239.212 L 330.222 239.212 L 330.222 249.18 L 335.767 249.18 L 335.767 292.047 L 335.783 292.081 C 335.783 301.77 341.028 309.646 347.467 309.646 C 347.515 309.646 347.562 309.611 347.633 309.611 L 368.897 309.611 L 368.897 299.644 L 366.39 299.644 C 364.72 299.574 363.376 297.553 363.376 295.044 L 363.376 249.145 L 368.866 249.145 Z M 435.22 294.66 L 430.814 299.644 L 416.163 299.644 L 437.443 239.178 L 386.72 239.178 L 382.266 234.228 L 380.067 234.228 L 380.067 254.163 L 382.266 254.163 L 386.696 249.18 L 401.26 249.18 L 380.067 309.646 L 430.79 309.646 L 435.196 314.63 L 437.419 314.63 L 437.419 294.695 L 435.22 294.695 L 435.22 294.66 Z" style=""/>
</svg>