<?xml version="1.0" encoding="utf-8"?>
<svg version="1.1" id="layer" xmlns="http://www.w3.org/2000/svg" x="0px" y="0px" viewBox="35 195 585 265">
  <style type="text/css">
	.st0{fill:#231815;}
	.st1{fill-rule:evenodd;clip-rule:evenodd;fill:#231815;}
</style>
  <path d="M 466.462 368.231 C 477.414 372.704 483.955 381.117 483.955 390.703 C 483.955 403.4 473.72 410.968 456.57 410.968 C 438.371 410.968 429.916 395.669 427.75 390.998 L 425.086 385.209 L 391.004 385.209 L 390.948 385.178 L 359.371 385.178 C 350.745 398.909 333.37 411.561 313.17 411.561 C 276.714 411.561 258.523 384.382 256.197 357.548 L 405.187 357.548 L 405.187 351.666 C 405.187 340.541 403.975 330.069 401.71 320.347 C 405.973 332.822 415.696 345.756 436.078 354.912 C 443.521 358.303 454.76 363.36 466.462 368.231 M 311.044 282.965 C 341.535 282.965 356.472 303.035 360.799 323.482 L 259.317 323.482 C 264.61 302.993 283.423 282.965 311.043 282.965 M 610.027 283.557 L 610.027 246.839 L 578.354 246.839 L 578.354 203.443 L 539.467 203.443 L 539.467 246.839 L 461.146 246.839 C 424.974 246.858 398.722 270.069 398.722 302.051 C 398.727 305.733 399.077 309.407 399.767 313.032 C 387.442 272.285 354.956 246.839 311.33 246.839 C 257.965 246.839 217.166 286.488 213.748 340.202 L 213.748 328.783 C 213.748 283.596 175.216 246.839 127.861 246.839 C 80.506 246.839 41.973 283.596 41.973 328.783 L 41.973 446.265 L 81.336 446.265 L 81.336 328.783 C 81.336 304.321 102.199 284.399 127.861 284.399 C 153.51 284.399 174.386 304.317 174.386 328.783 L 174.386 446.265 L 213.748 446.265 L 213.748 354.863 C 217.191 408.769 258.511 448.557 312.566 448.557 C 345.567 448.557 374.675 430.268 391.163 409.086 C 403.464 434.171 427.503 448.557 457.192 448.557 C 491.605 448.557 526.436 427.582 526.436 387.478 C 526.436 363.476 511.827 343.863 485.296 332.233 C 482.367 330.955 479.451 329.656 476.544 328.334 L 476.19 328.164 C 473.069 326.753 469.939 325.362 466.8 323.99 C 449.459 316.564 441.207 311.126 441.207 300.281 C 441.207 290.741 450.154 283.557 461.197 283.557 L 539.468 283.557 L 539.468 388.172 C 539.468 421.481 567.857 448.553 602.748 448.553 L 602.748 411.446 C 589.298 411.446 578.354 401.005 578.354 388.172 L 578.354 283.558 C 593.913 283.569 605.895 283.558 610.027 283.558" style=""/>
</svg>